<svg xmlns="http://www.w3.org/2000/svg" viewBox="0 0 441.77 155.87"><defs><style>.cls-1{fill:#f58322;}.cls-2{fill:#626363;}</style></defs><title>Payoneer</title><g id="Слой_2" data-name="Слой 2"><g id="Layer_1" data-name="Layer 1"><path class="cls-1" d="M273.84,5.86s13,9.06,0,10.75c0,0-48.68,5.66-84.91,39.63,0,0-54.34,47.54-74.72,99.62,0,0-6.79,0-4.52-10.19S125.53,90.77,186.1,35.86c0,0,58.31-53.21,87.74-30M119.31,12.65c.56,12.46,11.32,60,11.32,60,4,9.62,7.36,0,7.36,0C151,33.59,124.4,11,124.4,11c-6.8-4-5.1,1.69-5.1,1.69"/><path class="cls-2" d="M14.16,45.2C19,44,26.53,43.29,33.84,43.29c6.86,0,14.62,1.13,20.13,5.07,5.17,3.38,8.21,8.77,8.21,16.08A26.3,26.3,0,0,1,51.94,85.67c-6.18,4.84-15.06,7.08-24.28,7.08-2.7,0-4.95-.33-6.63-.44l-5.17,27.2H0ZM23.5,79a30.7,30.7,0,0,0,6.29.56c9.67,0,16.08-6.18,16.08-13.83,0-7.19-5.17-9.56-11.47-9.56a42.25,42.25,0,0,0-6.64.45Z"/><path class="cls-2" d="M94.23,119.52c.11-3.14.45-7,.68-10.9h-.22c-5.18,9.1-12.26,12.14-18.67,12.14-9.89,0-16.63-7.64-16.63-19.12,0-18.55,12.37-38.33,39.35-38.33a63.12,63.12,0,0,1,18.1,2.7l-5.52,28.78a134.21,134.21,0,0,0-2.25,24.73ZM98.61,76a22.34,22.34,0,0,0-4.27-.45c-10.45,0-18.1,12.82-18.1,23,0,5.4,2.14,9.1,6.64,9.1,4.84,0,11-5.5,13.49-19Z"/><path class="cls-2" d="M196.41,120.76c-14,0-23.38-9.11-23.38-22.72,0-19,13.27-34.74,32.83-34.74,14.84,0,23.38,10.12,23.38,22.71,0,20-13.82,34.74-32.71,34.74Zm2.14-12.37c8.77,0,13.82-12.92,13.82-22.26,0-5.17-2.24-10.46-8.65-10.46-9.33,0-14.05,13.49-14.05,22,0,6.42,3.26,10.68,8.77,10.68Z"/><path class="cls-2" d="M231.42,119.52l7-37.1c1.35-7,2.25-12.93,2.93-17.88H255.6l-1,9.11h.22c5.18-7.08,12-10.34,19.23-10.34,9,0,14.16,5.51,14.16,15.07a66.93,66.93,0,0,1-.9,9.21l-6.07,31.94H265l5.73-30.47a35.65,35.65,0,0,0,.57-6.07c0-3.94-1.35-6.64-5.51-6.64-5.28,0-11.35,6.64-13.71,18.78l-4.5,24.4Z"/><path class="cls-2" d="M338.25,116.37c-6.4,3.25-14.39,4.38-20.46,4.38C302,120.76,294,111.87,294,97.48c0-16.76,12.14-34.18,32-34.18,11.13,0,19.11,6.3,19.11,16.53,0,13.95-13.6,19-35.64,18.44a10.76,10.76,0,0,0,1.69,5.62c2.13,2.81,5.84,4.27,10.57,4.27a34.68,34.68,0,0,0,15.4-3.48Zm-8.32-36.66c0-2.7-2.25-4.61-6-4.61-7.53,0-11.81,6.29-12.93,11.36,12.59.11,18.88-1.57,18.88-6.63Z"/><path class="cls-2" d="M391.59,116.37c-6.41,3.25-14.39,4.38-20.47,4.38-15.74,0-23.83-8.88-23.83-23.27,0-16.76,12.14-34.18,32-34.18,11.13,0,19.11,6.3,19.11,16.53,0,13.95-13.61,19-35.64,18.44a10.8,10.8,0,0,0,1.69,5.62c2.13,2.81,5.84,4.27,10.57,4.27a34.66,34.66,0,0,0,15.4-3.48Zm-8.32-36.66c0-2.7-2.25-4.61-6-4.61-7.53,0-11.81,6.29-12.93,11.36,12.59.11,18.88-1.57,18.88-6.63Z"/><path class="cls-2" d="M398.82,119.52l6.29-32.71c1.46-8.32,2.25-17.54,2.81-22.27h13.94c-.23,3.72-.56,7.42-1,11.36h.45c3.82-7.42,9.89-12.59,17.43-12.59,1.13,0,2.13.11,3,.11l-3.15,15.86a15.37,15.37,0,0,0-2.47-.12c-10.23,0-15.18,9.11-17.2,19.91l-3.82,20.46Z"/></g></g></svg>
