<svg xmlns="http://www.w3.org/2000/svg" viewBox="0 0 216 55.43"><defs><style>.cls-1{fill:#369;}.cls-2{fill:#036;}</style></defs><title>PayPal</title><g id="Слой_2" data-name="Слой 2"><g id="Layer_1" data-name="Layer 1"><path class="cls-1" d="M175.8,11.19c-2.26-1.26-5.79-1.9-10.62-1.9a47,47,0,0,0-7.2.57c-1.77.27-2,.32-3,.56a3.48,3.48,0,0,0-2.61,2.76l-.73,3c-.41,1.91.68,1.83,1.16,1.68a31,31,0,0,1,3.54-1,26.09,26.09,0,0,1,5.58-.75,14.73,14.73,0,0,1,5.39.76,2.74,2.74,0,0,1,1.8,2.7,2,2,0,0,1-.1.84c-.1.23-.29.46-.86.54-3.4.2-5.83.51-8.77.94a27.48,27.48,0,0,0-7.55,2.07,11.76,11.76,0,0,0-5.11,4A11,11,0,0,0,145,34.14a7.29,7.29,0,0,0,2.43,5.63,9.11,9.11,0,0,0,6.27,2.15,16.7,16.7,0,0,0,3.73-.35,18.83,18.83,0,0,0,2.87-1,14.87,14.87,0,0,0,2.45-1.36l2.24-1.5,0,0-.22,1v0A1.76,1.76,0,0,0,166.34,41v0h5.53a.11.11,0,0,0,.08,0,3.1,3.1,0,0,0,2.55-2.23L178.85,20a10.93,10.93,0,0,0,.23-1.54,12,12,0,0,0,.1-1.43A6.27,6.27,0,0,0,175.8,11.19ZM165.27,33.52a15.55,15.55,0,0,1-2.34,1.2,8.37,8.37,0,0,1-3.1.67,6.88,6.88,0,0,1-3.38-.66,2.29,2.29,0,0,1-1.16-2.22,4.52,4.52,0,0,1,.86-2.9,6.17,6.17,0,0,1,2.54-1.71,21.94,21.94,0,0,1,3.92-.88c1.36-.17,4-.48,4.38-.48s.57-.19.42.72c-.07.4-.84,3.58-1.2,5A2.84,2.84,0,0,1,165.27,33.52Z"/><path class="cls-2" d="M101.08,9.71A5.09,5.09,0,0,0,97.35,12S88.82,26.59,88,28.05c-.46.79-.92.29-1,0s-2.64-16-2.64-16a3.26,3.26,0,0,0-3.24-2.33H75.79A1.77,1.77,0,0,0,74,12s4.06,23,4.85,28.44c.39,3,0,3.53,0,3.53l-5.27,9.18c-.77,1.24-.35,2.26.93,2.26h6.16a5,5,0,0,0,3.72-2.26L108,13.1s2.27-3.42.18-3.39c-1.43,0-7.14,0-7.14,0"/><path class="cls-2" d="M26.3,17.85c-1.79,1.31-4.28,2-7.5,2H17.33a1.78,1.78,0,0,1-1.81-2.27l1.79-7.71a3,3,0,0,1,2.84-2.26H22.1a9.41,9.41,0,0,1,5.17,1.16A3.89,3.89,0,0,1,29,12.26a6.41,6.41,0,0,1-2.68,5.59M39.14,6a8.88,8.88,0,0,0-3.26-3.5A15,15,0,0,0,30.71.56a42.59,42.59,0,0,0-7-.56H11.28A3.1,3.1,0,0,0,8.43,2.28L.06,38.67a1.78,1.78,0,0,0,1.8,2.27H7.81a3,3,0,0,0,2.85-2.27l2-8.83a3,3,0,0,1,2.83-2.26h1.7c7.27,0,12.91-1.5,17-4.47a13.91,13.91,0,0,0,6.06-11.78A11.08,11.08,0,0,0,39.14,6"/><path class="cls-1" d="M134.27,18q-2.67,1.94-7.5,1.95h-1.48a1.76,1.76,0,0,1-1.8-2.26L125.27,10a3,3,0,0,1,2.83-2.25h2a9.64,9.64,0,0,1,5.17,1.15A4,4,0,0,1,137,12.39,6.54,6.54,0,0,1,134.27,18M147.11,6.09a9.09,9.09,0,0,0-3.28-3.51,14.76,14.76,0,0,0-5.17-1.9,41.49,41.49,0,0,0-7-.55H119.23a3.1,3.1,0,0,0-2.83,2.27L108,38.81a1.76,1.76,0,0,0,1.79,2.26h6a3.09,3.09,0,0,0,2.86-2.25l2-8.83a3,3,0,0,1,2.86-2.26h1.7q10.92,0,17-4.47a14,14,0,0,0,6.06-11.8,11.5,11.5,0,0,0-1.13-5.35"/><path class="cls-2" d="M67.8,11.16C65.54,9.9,62,9.26,57.18,9.26a46.93,46.93,0,0,0-7.2.56c-1.77.27-1.95.32-3,.55a3.48,3.48,0,0,0-2.61,2.76l-.73,3c-.41,1.91.68,1.83,1.16,1.68a31.07,31.07,0,0,1,3.54-1.05A26.21,26.21,0,0,1,53.87,16a14.72,14.72,0,0,1,5.39.76,2.73,2.73,0,0,1,1.8,2.7,2,2,0,0,1-.09.84c-.1.24-.29.46-.86.54-3.39.2-5.83.51-8.77.94a27.51,27.51,0,0,0-7.55,2.07,11.76,11.76,0,0,0-5.11,4A11,11,0,0,0,37,34.12a7.3,7.3,0,0,0,2.43,5.63,9.11,9.11,0,0,0,6.27,2.15,16.86,16.86,0,0,0,3.73-.35,18.89,18.89,0,0,0,2.86-1,15,15,0,0,0,2.45-1.36c.87-.58,1.47-1,2.24-1.49l0,0-.22,1s0,0,0,0v0A1.76,1.76,0,0,0,58.34,41v0h5.53A.1.1,0,0,0,64,41a3.11,3.11,0,0,0,2.55-2.23L70.86,20a10.71,10.71,0,0,0,.22-1.53,11.79,11.79,0,0,0,.1-1.43A6.27,6.27,0,0,0,67.8,11.16ZM57.28,33.5a15.56,15.56,0,0,1-2.33,1.2,8.41,8.41,0,0,1-3.1.67,6.92,6.92,0,0,1-3.38-.66A2.3,2.3,0,0,1,47.3,32.5a4.52,4.52,0,0,1,.87-2.9,6.15,6.15,0,0,1,2.53-1.72A22,22,0,0,1,54.62,27c1.36-.17,4-.48,4.38-.48s.57-.19.42.72c-.07.4-.84,3.58-1.2,5A2.88,2.88,0,0,1,57.28,33.5Z"/><path class="cls-1" d="M196.3.44H191a3.07,3.07,0,0,0-2.8,2.12s0,.09,0,.14l-.35,1.58-7.31,33.13c-.17.75-.28,1.24-.32,1.36v0A1.75,1.75,0,0,0,181.75,41l0,0h5.52a3.08,3.08,0,0,0,2.79-2.1c0-.06,0-.11.06-.17l8-36.08h0A1.78,1.78,0,0,0,196.3.44Z"/><path class="cls-1" d="M206.37,7.78a5.05,5.05,0,0,1-.6.12,4.16,4.16,0,0,1-.58,0,1.79,1.79,0,0,1-1.35-.48,2.14,2.14,0,0,1-.46-1.53V2.87h-.66V2h.66V.38h1V2h2v.82h-2V5.5c0,.3,0,.54,0,.71a1.17,1.17,0,0,0,.15.48.69.69,0,0,0,.31.3,1.47,1.47,0,0,0,.61.1A1.91,1.91,0,0,0,206,7l.37-.12h0Z"/><path class="cls-1" d="M216,7.83h-1V4.54a7.13,7.13,0,0,0,0-.72,1.55,1.55,0,0,0-.14-.55.79.79,0,0,0-.34-.34,1.44,1.44,0,0,0-.64-.11A1.81,1.81,0,0,0,213,3a5,5,0,0,0-.82.52c0,.08,0,.17,0,.28s0,.21,0,.31V7.83h-1V4.54c0-.26,0-.5,0-.73a1.54,1.54,0,0,0-.14-.55.78.78,0,0,0-.34-.33,1.47,1.47,0,0,0-.64-.11,1.82,1.82,0,0,0-.8.2,4.81,4.81,0,0,0-.8.5V7.83h-1V2h1v.64a4.31,4.31,0,0,1,.91-.59,2.26,2.26,0,0,1,1-.21,1.91,1.91,0,0,1,1,.25,1.54,1.54,0,0,1,.61.69,4.74,4.74,0,0,1,1.08-.72,2.49,2.49,0,0,1,1-.22,1.68,1.68,0,0,1,1.41.58A2.56,2.56,0,0,1,216,4.08Z"/></g></g></svg>
