<svg xmlns="http://www.w3.org/2000/svg" viewBox="0 0 226.77 77.46"><defs><style>.cls-1{fill:#831f6a;}</style></defs><title>Skrill</title><g id="Слой_2" data-name="Слой 2"><g id="Layer_1" data-name="Layer 1"><path class="cls-1" d="M180.33,7.61,199.2,4.23V76.68H180.33Zm27.55,0V76.68h18.88V4.23ZM153.45,76.68h18.88v-53H153.45ZM28.7,31.18c-2.39-.16-7.91-.51-7.91-5.49,0-6,8-6,10.94-6,5.25,0,12,1.55,16.89,3,0,0,2.71,1,5,1.93l.21.06V8.25l-.29-.09c-5.72-2-12.38-3.93-24.72-3.93C7.54,4.23,0,16.63,0,27.25c0,6.12,2.62,20.53,27,22.19,2.07.13,7.55.44,7.55,5.58,0,4.24-4.49,6.75-12,6.75A59.25,59.25,0,0,1,1.33,57.66V74.59A98.75,98.75,0,0,0,26.5,77.46c20.81,0,30.13-11.73,30.13-23.35C56.62,40.92,46.19,32.36,28.7,31.18Zm114.12-8.27c-17.45.56-26.3,8.39-26.3,23.95V76.68h19V52.37c0-9.32,1.22-13.31,12.28-13.69V23.19A26.37,26.37,0,0,0,142.82,22.92Zm-51.21.72A65.79,65.79,0,0,1,80.85,42.08V4.23L61.37,8.09V76.68H80.85V55.47c5.64,8.46,8.43,21.2,8.43,21.2h23.33c-2.31-9.59-12.4-27.29-12.4-27.29a85.47,85.47,0,0,0,13.67-25.76Zm71.29-5a9.3,9.3,0,1,0-9.3-9.3A9.3,9.3,0,0,0,162.89,18.61Z"/></g></g></svg>
