<svg xmlns="http://www.w3.org/2000/svg" viewBox="0 0 321.16 179.76"><defs><style>.cls-1{fill:#30afd0;}.cls-2{fill:#29b3d3;}.cls-3{fill:#3eb3d1;}.cls-4{fill:#1ba5c2;}.cls-5{fill:#026d90;}.cls-6{fill:#036e8e;}.cls-7{fill:#026d8f;}.cls-8{fill:#07aed6;}.cls-9{fill:#06afd7;}.cls-10{fill:#06afd8;}.cls-11{fill:#07add7;}.cls-12{fill:#026e8e;}.cls-13{fill:#07afd8;}.cls-14{fill:#07aed7;}.cls-15{fill:#09afd5;}.cls-16{fill:#06aed9;}.cls-17{fill:#c9f4b7;}.cls-18{fill:#edfae7;}.cls-19{fill:#d4f5c7;}.cls-20{fill:#c9f4ba;}.cls-21{fill:#74dc4b;}.cls-22{fill:#51d221;}.cls-23{fill:#349610;}.cls-24{fill:#319111;}.cls-25{fill:#73dc4a;}.cls-26{fill:#53cb27;}.cls-27{fill:#9dea7f;}.cls-28{fill:#6dda41;}.cls-29{fill:#b5f09c;}.cls-30{fill:#9eea81;}.cls-31{fill:#b6f09d;}.cls-32{fill:#ebf6f7;}.cls-33{fill:#e7fcf9;}.cls-34{fill:#daf6f9;}.cls-35{fill:#e3fcfa;}.cls-36{fill:#44ca10;}.cls-37{fill:#adee93;}.cls-38{fill:#8fe56b;}.cls-39{fill:#84e361;}.cls-40{fill:#3abc09;}.cls-41{fill:#359212;}.cls-42{fill:#37b005;}.cls-43{fill:#31b003;}.cls-44{fill:#87e764;}.cls-45{fill:#3ecd0b;}</style></defs><title>wire transfer</title><g id="Слой_2" data-name="Слой 2"><g id="Слой_1-2" data-name="Слой 1"><path class="cls-1" d="M9.72,2.69C14-.33,18.87,0,23.68,0Q162.11,0,300.54,0c4.56,0,8.9.79,12.81,3.38,5.08,3.35,7.81,7.68,7.8,14.06-.13,48-.07,96-.11,143.93,0,1.94.59,4-.88,5.76-2.19-2-1.52-4.64-1.53-7.05q-.06-69.45,0-138.9c0-1.79.53-3.67-.54-5.36-.46-.41-.89-.84-1.32-1.27C312,6.74,304.87,4.33,296,4.35q-135.08.23-270.15,0c-4.7,0-9.23,1.2-13.89,1.17C10.4,5.2,10,4,9.72,2.69Z"/><path class="cls-2" d="M13,177.9a14.39,14.39,0,0,1-9-6c-1-1.85,0-2.43,1.68-2.59,3.85,1.36,6.75,4.48,10.65,5.76a15.51,15.51,0,0,0,5,.36h279a25.16,25.16,0,0,0,4.47-.21c4.83-.84,7.69-5.09,11.94-7a2.44,2.44,0,0,1,1.44.38c1,3.61-2.47,4.34-4.12,6.23-1.55,1.68-3.84,2-5.72,3.08a25.77,25.77,0,0,1-9.27,1.4q-138.92-.07-277.84,0A18.77,18.77,0,0,1,13,177.9Z"/><path class="cls-2" d="M9.72,2.69A2.19,2.19,0,0,1,11,4.83c-1.54,3.51-6,5-6.43,9.29-.4,6.67-.15,13.33-.16,20q0,61.69,0,123.39a30.07,30.07,0,0,1-.23,6c-.34,1.69-.91,3.36-3.28,2.46-1.21-1.43-.82-3.16-.82-4.78C.06,113.78.12,66.41,0,19,0,11.42,2.93,6,9.72,2.69Z"/><path class="cls-3" d="M13,177.9c5.56,1.26,11.22.93,16.85.93q127.08,0,254.16,0c8.12,0,16.27.58,24.34-.84-2.21,1.93-4.92,1.78-7.58,1.78H19.46C17.1,179.76,14.78,179.74,13,177.9Z"/><path class="cls-1" d="M.9,165.94c3.49-.93,2-3.81,2-5.82Q3.06,88.81,3,17.5c0-1.89-.79-4,1-5.64,2.21,2.57,1.54,5.7,1.55,8.62q.07,68,0,136c0,4.48,1.09,8.91.35,13.39A1.88,1.88,0,0,0,4,171.9,8.44,8.44,0,0,1,.9,165.94Z"/><path class="cls-4" d="M318,168.89l-1.2-.1c-1-1.54-.4-3,.12-4.54,1-2.4.66-4.93.66-7.41q0-67.17,0-134.34c0-2.61-.57-5.38,1.4-7.66,2,1.14.92,3.06.93,4.54q.11,70.13.07,140.25c0,2.49.09,5,.15,7.48a.66.66,0,0,1-.21.72C319.44,168.45,319.15,169.48,318,168.89Z"/><path class="cls-3" d="M318,168.89l1.94-1c-.75,3.38-2.43,6-5.92,7C314.85,172.56,318,171.75,318,168.89Z"/><path class="cls-3" d="M317.63,165.72c.1-3.49.29-7,.29-10.48Q318,85,318,14.85h1q0,73,0,146C319,162.52,319.89,164.61,317.63,165.72Z"/><path class="cls-3" d="M14.07,175.64c6.5.09,13,.27,19.49.27q131.73,0,263.46,0c3.33,0,6.66-.09,10-.14-1.42,1.75-3.4,1.06-5.13,1.06q-141.39,0-282.77,0C17.39,176.83,15.37,177.61,14.07,175.64Z"/><path class="cls-5" d="M125.37,75.22c2.7-9.13,5.31-17.3,7.48-25.59.81-3.09,2.32-4.19,5.21-3.66,3.17.58,7.46-2.1,8.92,3.52,2.1,8.11,4.61,16.12,7.34,25.51,2.54-9.14,5-16.84,6.73-24.7.87-3.87,2.76-4.5,6.21-4.45,9.91.14,9.91,0,6.9,9.63C170.61,66.75,167,78,163.59,89.31c-1.06,3.55-2.63,5.13-6.59,4.95-10.74-.49-8,1.28-11.41-8.5-1.91-5.48-3.59-11-5.39-16.56,0-.11-.27-.17-.61-.36-2.34,7.38-4.74,14.7-6.93,22.07-.74,2.5-2,3.44-4.61,3.3-11.88-.62-9.36,2.48-13.1-9.44-3.64-11.58-7.24-23.18-11.07-34.7-1.13-3.38-.47-4.28,3.11-4.25,10.36.08,10.38-.06,13.14,9.76.9,3.2,1.68,6.44,2.54,9.66C123.46,68.27,124.3,71.28,125.37,75.22Z"/><path class="cls-6" d="M223.06,77.49c0,4.26-.1,8.53,0,12.79.09,2.65-.66,3.83-3.59,4-10.33.5-10.33.61-10.33-9.64,0-11.49.13-23-.06-34.45-.05-3.2.7-4.51,4.1-4.31,7.63.44,15.31-.47,22.92.79,7.24,1.2,12,5.55,13,11.9,1.08,7.08-1.65,12.23-8.87,15.44-2.67,1.19-2.27,1.93-.86,3.74,3.87,5,7.59,10.08,11.35,15.14.07.1,0,.31-.06.92-4.59.83-9.32.35-14,.28-1.92,0-2.64-1.87-3.53-3.21-3-4.54-6-9.13-9-13.71Z"/><path class="cls-7" d="M257.55,69.35c0-6.65.13-13.31-.06-20-.08-2.64.72-3.54,3.34-3.51,8.82.1,17.64.13,26.45,0,3.25-.06,3.79,1.69,3.17,4.06s2.26,6.61-3.16,6.7c-4,.06-8,.17-12,0-3.1-.17-3.6,1.34-3.46,3.93.13,2.4-.25,4.73,3.47,4.48s7.32,0,11,0c4.69,0,2.79,3.58,3,5.83s.49,4.78-3.28,4.54-7.32.05-11-.08c-3.31-.12-3.16,2-3.23,4.29-.07,2.49.25,4.18,3.43,4,3.81-.23,7.67.15,11.47-.17,4.07-.34,3.87,2.26,3.58,4.76s1.84,6.12-3.26,6.06c-8.65-.09-17.3-.12-26,0-2.9,0-3.76-1.17-3.73-3.86.09-7,0-14,0-21Z"/><path class="cls-8" d="M142,112.8c0,6.4-.23,11.74.07,17,.25,4.28-2.37,3.85-5.11,3.95-3,.11-5.07,0-4.9-4.09.3-7.65-.07-15.33.14-23,.06-2.19-1.67-5.72,1.84-6.34s7.24-1.46,10.07,2.23c4.65,6.06,9.55,11.93,14.77,18.42,0-5.85.18-11.35-.07-16.83-.16-3.44,1.24-4.43,4.39-4.13,2.68.25,5.81-.83,5.64,3.94-.27,7.82,0,15.66-.12,23.49,0,2.09,1.4,5.47-1.76,6-3.32.51-7.18,1.67-10-2.06C152.34,125.36,147.46,119.54,142,112.8Z"/><path class="cls-9" d="M99.86,132.85c-6.48,1.89-13.09.6-19.64.78-1.57,0-2-1.55-2.71-2.64a36.21,36.21,0,0,0-6.73-8.1,34,34,0,0,0,0,5.27c.79,5-1.8,6-6,5.66-2.37-.17-3.76-.7-3.74-3.39q.11-13.48,0-27c0-2.24.72-3.45,3.15-3.37,5.31.17,10.63-.33,15.93.64,4.62.85,7.61,3.46,8.57,7.93s-.61,8.34-5,10.35c-2.71,1.26-2.52,2.44-.87,4.39A77.44,77.44,0,0,1,88,130.12c1.64,2.44,2.77,1.54,3.94-.31C94.22,131.83,97.58,130.94,99.86,132.85Z"/><path class="cls-10" d="M293.77,132.66c-11.06,4.82-14-4-18.69-10.76-1.41,3.16-.8,5.94-.6,8.53.26,3.47-1.79,3.52-4,3.25s-5.5,1.61-5.51-2.8c0-9.33,0-18.66-.06-28,0-1.81.65-2.83,2.63-2.74,5.32.24,10.65-.43,16,.5,4.8.84,8.07,3.46,9,8.14.93,4.5-.79,8.32-5.12,10.34-2.93,1.37-2,2.81-.63,4.56C289.07,126.63,291.38,129.61,293.77,132.66Z"/><path class="cls-11" d="M99.86,132.85c-2.58-1.14-7.09,2.71-7.88-3,3.35-9,6.75-18,10-27a3.67,3.67,0,0,1,3.63-2.69c9.43-.87,9.75-.72,13.26,8.34,2.64,6.81,5.36,13.6,7.88,20.46.54,1.46,2.55,4,.16,4.56-2.72.65-7.43,2.13-8.5-1.24-1.82-5.75-5.82-4-9.47-4.53C104.34,126.92,101.39,128.47,99.86,132.85Z"/><path class="cls-12" d="M197.35,70.19c0,6.81-.12,13.63.05,20.43.07,2.89-1,3.61-3.76,3.64-11,.11-11,.19-11-10.94s.11-22.26-.07-33.39c0-3,.61-4,3.78-4.07,11-.18,11-.31,11,10.88Q197.35,63.46,197.35,70.19Z"/><path class="cls-13" d="M235.19,116.39c0-4,.2-8-.06-12-.23-3.61,1.24-4.6,4.63-4.41,4.31.25,8.64,0,13,.06,2.73,0,5.64-.76,5.56,4-.07,4.46-2.79,3.6-5.34,3.64-1.49,0-3,0-4.49,0-1.73,0-3.36,0-3.39,2.51,0,2.14.94,3,3,3,1.66,0,3.33.31,5,.16,2.44-.22,4.24-.13,4.32,3.09.07,3-1,4.35-4,4.15-2-.13-4,0-6,0-1.73,0-2.17,1.16-2.21,2.67s.56,2.58,2.23,2.63c2.49.08,5,.22,7.47.09,2.68-.14,3.45,1,3.37,3.55s-.14,4.22-3.37,4.12c-5.48-.16-11-.06-16.44,0-2.42,0-3.17-1.18-3.14-3.4.06-4.65,0-9.3,0-14Z"/><path class="cls-14" d="M187.27,99.63c3.74-.11,6.05.14,8.26,1,1.8.69,4.24.94,2.9,4-1,2.16-1.69,4.66-4.95,2.86a5.25,5.25,0,0,0-1.88-.66c-2.3-.26-5.3-1-6.1,1.77-1,3.39,2.48,3.18,4.51,3.92,1.25.45,2.55.75,3.82,1.15,4.37,1.37,7.31,3.92,7.33,8.89a10.57,10.57,0,0,1-6.94,10.54c-6.13,2.59-12,1.72-17.77-1.36-2.48-1.32-2.61-2.68-.94-4.62,1.34-1.56,1.85-5,5.1-2.33a9.83,9.83,0,0,0,6.89,2.43c2-.1,3.73-.71,4.08-2.89.31-2-1.08-3.08-2.72-3.7s-3.5-1.08-5.24-1.63c-6.4-2-8.21-4.27-7.83-9.75.35-5,3.87-8.57,9.38-9.42A13.19,13.19,0,0,1,187.27,99.63Z"/><path class="cls-15" d="M206.87,116.65c0-4.32.08-8.64,0-12.95-.07-2.44.58-3.68,3.31-3.62q8.21.19,16.44,0c3.29-.09,3.18,2,3.29,4.25.13,2.64-1,3.59-3.53,3.46-2.15-.12-4.32,0-6.47,0s-3,.76-3,2.93,1.16,2.88,3.17,2.81,4,.07,6,0c2.84-.11,3.14,1.57,3.13,3.85s-1,3.11-3.27,3.33c-8.48.83-8.69.9-8.9,9.44-.11,4.32-2.75,3.64-5.38,3.72s-5,.19-4.79-3.69C207.06,125.62,206.88,121.13,206.87,116.65Z"/><path class="cls-16" d="M42.67,100.09c3,0,6,.12,9,0s4.64.24,4.62,3.9c0,3.36-1.19,4.62-4.35,4.13-3.58-.56-4.12,1.35-4,4.34.14,5.81-.13,11.64,0,17.44.14,4.63-3,3.72-5.75,3.93-3.06.24-4.58-.6-4.45-4.08.23-5.81-.1-11.63.11-17.44.12-3.28-1-4.63-4.29-4.22-2.8.35-4.41-.5-4.23-3.77.16-3,1-4.63,4.4-4.28,3,.3,6,.06,9,.06Z"/><path class="cls-17" d="M96.9,54.76c-1,2.05-2.92,1.18-4.44,1.18-13.66,0-27.31,0-41-.15-3.8,0-7.59-.66-11.39-1C37,54.58,37,52.42,37,50.14s.31-4.11,3-4.24c2-.1,4,0,6,0A3.28,3.28,0,0,1,47.17,48C47.09,53.62,50.65,54,55,53.45c3.38,0,6.75.08,10.13-.07,2.68.11,5.37.09,8.05.07,4.28,0,8.56,0,12.84,0C89.63,53.83,93.51,52.28,96.9,54.76Z"/><path class="cls-18" d="M96.93,93.69c-1.11,1.86-3,1.17-4.5,1.17-16.41,0-32.82.05-49.23-.06a71.79,71.79,0,0,1-8.32-1c-4-.49-3-4.37-4-6.61-.55-1.2,2-3.21,4.2-3.32s4.64,0,7,0c.28,1-.46,1.46-.92,2.12-2.65,3.82-1.57,6.08,3.12,6.5a51,51,0,0,0,6.46-.05c2.48-.07,5,.15,7.44-.06,3.23,0,6.45.21,9.67,0a27,27,0,0,1,2.7,0c6.11-.32,12.22.22,18.33,0C91.6,92.41,94.46,91.85,96.93,93.69Z"/><path class="cls-19" d="M50,93.8c-1.82,0-3.63,0-5.45.05-2.72.07-5.45.09-6.43-3.21C37.11,87.1,39,85.15,42,83.87l32.41-.08c-2.78,3.81-6.9,2-10.47,2.51-2.73-.14-5.46.11-8.18,0-.32,0-.66,0-1,0-2.37.23-5.19-1-6.89,1.58C46.09,90.59,50,91.54,50,93.8Z"/><path class="cls-20" d="M51,73.86c-3.15,0-6.32.15-9.44-.14a5.46,5.46,0,0,1-5.32-5.05c-.31-3.4,2.37-3.59,4.94-4.11,5.93-1.2,11.88-.58,17.82-.69a1,1,0,0,1-.16,1.39,4.81,4.81,0,0,1-2.18.8c-1.74.17-3.49.11-5.23.13s-3.51-.37-4,1.95c-.4,2,.61,3.15,2.44,3.73a4.14,4.14,0,0,1,1.19.75A1,1,0,0,1,51,73.86Z"/><path class="cls-21" d="M64,84.86c3.46-.49,7.06.35,10.42-1.07,5.61,0,11.22,0,16.82.18,1.54,0,3.3-.81,4.62.73-2.71,2.55-6.06,1.32-9.16,1.55-.65,0-1.3,0-2,0-6.11,0-13-1.57-14.66,7.36l-2.1.2a3.71,3.71,0,0,0-2.4-.44c-2.19,0-4.59.32-5-2.72C60.26,87.91,61,85.69,64,84.86Z"/><path class="cls-22" d="M96.89,64.81a22.73,22.73,0,0,1,.31,2.45c.15,6.65.13,6.7-6.31,6.59-7.3-.12-14.61.44-21.89-.42a8,8,0,0,1,1.63-9,19.06,19.06,0,0,1,4.38.18c.41.28.9.6,1,1.05,1.15,6,5.36,6.54,10.29,5.89.67,0-.18,0,.49,0,6.88,0,6.88,0,8.79-6.41A1,1,0,0,1,96.89,64.81Z"/><path class="cls-23" d="M86,85.2l9.91-.5c2.3,2.77.78,6,1.05,9l-8,0a2.92,2.92,0,0,1-1.55-1.14c-.77-2-.25-4.24-1.46-6.11A1.43,1.43,0,0,1,86,85.2Z"/><path class="cls-24" d="M96.9,54.76,86,54.78a1.1,1.1,0,0,1,0-1.25c3.19-3.32,1.48-5.14-2-6.44A.92.92,0,0,1,84,45.88c1.49-.07,3-.19,4.46-.2C97.32,45.6,97.32,45.6,96.9,54.76Z"/><path class="cls-25" d="M73,54.77l-8,0c-1-.9-2.67,0-3.57-1.23a8.94,8.94,0,0,1-.36-6.33A6.07,6.07,0,0,1,62,45.9l10,0c.15.33.24.71,0,.91C68.66,49.9,70.48,52.38,73,54.77Z"/><path class="cls-26" d="M73,54.77c-1.41-1.63-3.52-.42-5.19-1.29,2.29-2.07-.45-6.83,4.19-7.63a57.71,57.71,0,0,1,12,0q0,.48,0,1a3.86,3.86,0,0,1-2.72,1.26c-1.93.65-5.55-1.24-5.48,2.26s3.55,1.74,5.59,2.14a5.59,5.59,0,0,0,1,0A4.67,4.67,0,0,1,86,53.85a8.75,8.75,0,0,1,0,.94Z"/><path class="cls-27" d="M62,53.86c1.09.06,2.26-.12,3,.93l-11,0c-2.55-.37-3.87-1.27-3.9-4.41s1.45-4,3.86-4.49l8,0a8.14,8.14,0,0,1,0,.94,2.88,2.88,0,0,1-.36.33c-1.62,1-3.73,1.81-3.43,4.26C58.45,53.59,61.19,52.3,62,53.86Z"/><path class="cls-28" d="M70.05,64.94,69,73.43l-2,.41c-1.55-1.13-3.44,0-5.06-.76-.1-2.94-.61-5.93.87-8.71C65.23,64.64,67.72,63.73,70.05,64.94Z"/><path class="cls-29" d="M54,45.86c-4,2.69-4,6.38,0,8.9-7.58.17-7.58.17-8-8.88Z"/><path class="cls-30" d="M70.05,64.94,62.18,65A2.27,2.27,0,0,1,59,64.8q0-.47.06-.94c11-.08,21.95-.2,32.92-.18,1.66,0,3.71-1,5,1.14a1,1,0,0,1-.63.26c-3.51,2.18-7.4,1-11.13,1.27-3.41-.14-7,.81-10.1-1.41Z"/><path class="cls-31" d="M62,72.82c1.65.42,3.55-.44,5,1H51q0-.5,0-1c1.69-1.69,3.86-1.36,5.94-1.44C58.75,71.48,60.57,71.51,62,72.82Z"/><path class="cls-32" d="M222.95,62.23c.55-2.3-1.84-6.48,3.88-6.19,5.27.26,8.12,2.38,8.09,6.61,0,3.86-3.29,6.22-8.52,6.17C223,68.78,223,68.78,222.95,62.23Z"/><path class="cls-33" d="M70.72,111.46c-.06-2.07-.24-4.37,3.07-4.2,3.08.16,5.17,1.64,5,4.84s-2.68,3.72-5.34,3.87C69.88,116.17,70.68,113.66,70.72,111.46Z"/><path class="cls-34" d="M274.18,112c-.07-2.54-.4-5.07,3.3-4.77,2.79.23,5,1.31,5.09,4.35s-1.8,4.25-4.75,4.49C274.44,116.3,273.87,114.5,274.18,112Z"/><path class="cls-35" d="M109.11,107.08c2.79,4.06,3,8.14,4.68,11.68.35.75.3,1.86-.65,2.09a14.37,14.37,0,0,1-7.3-.07c-1.22-.34-.8-1.6-.49-2.54C106.49,114.83,107.64,111.44,109.11,107.08Z"/><path class="cls-36" d="M86,85.2a4.9,4.9,0,0,1,0,.65c-.38.57-1,.82-1.5,1.25-2.71,2.4-2.53,3.38.85,4.52a5.52,5.52,0,0,1,2.64,1.23l1,.81a149.34,149.34,0,0,1-18.83-.08c.19-.79.73-1.7.51-2.36-2-6.09,2.45-5.86,6-6.14C79.74,84.85,82.86,85.14,86,85.2Z"/><path class="cls-37" d="M50,93.8c-3.23-.93-4.82-2.86-4-6.36s3.8-2.31,6-2.58a20,20,0,0,1,2.95.06c.8,3,.71,6.33,3,8.85Z"/><path class="cls-38" d="M58,93.78c-5.44-1.46-3.21-5.49-3-8.85L64,84.86c-4.12,5.1-3.5,6.48,4,8.92Z"/><path class="cls-30" d="M57.07,72.8,51,72.86h0c-1-2.65-2.22-5.31,0-7.94l6,0C57.16,67.52,60.77,70.14,57.07,72.8Z"/><path class="cls-39" d="M57.07,72.8c2.35-2.66-1.69-5.28,0-7.93L59,64.8l3.22.21c2.91,2.66,1.31,5.23-.15,7.81Z"/><path class="cls-31" d="M51,64.92l0,7.94c-3.16.33-5.2-.11-5.12-4.27S48.37,64.77,51,64.92Z"/><path class="cls-40" d="M75,64.93l10,0c3.36,2,3.54,3.46,1,7.76-.49,0-1,.07-1.48.07C76.72,72.88,76.72,72.88,75,64.93Z"/><path class="cls-41" d="M86,72.72c.17-2.65,1.89-5.49-1-7.76,3.75-.24,7.5-.68,11.24.12C95.81,73.13,95.81,73.13,86,72.72Z"/><path class="cls-42" d="M87.95,92.85c-2.19-.31-4.77.93-6.51-1-.93-1-.67-2.85-.12-4.24.86-2.18,2.89-1.69,4.64-1.78C89.68,87.32,87.4,90.49,87.95,92.85Z"/><path class="cls-43" d="M86,53.85H82a7.4,7.4,0,0,1-1-7h3c2,.33,5-1.11,5,2.78C89,51.79,89.34,54.12,86,53.85Z"/><path class="cls-44" d="M62,53.86C60.37,53,57.23,56,56.87,51.71c-.33-4,1.29-5.47,5.12-4.87Q62,50.35,62,53.86Z"/><path class="cls-45" d="M81,46.85c1.44,2.17,1,4.62,1,7-1.3,0-2.61,0-3.91,0-2.31.08-4.08-.07-4.14-3.25s1.32-4,4.11-3.77C79,46.93,80,46.85,81,46.85Z"/></g></g></svg>
