<?xml version="1.0" encoding="UTF-8"?>
<!DOCTYPE svg PUBLIC "-//W3C//DTD SVG 1.1//EN" "http://www.w3.org/Graphics/SVG/1.1/DTD/svg11.dtd">
<!-- Creator: CorelDRAW X7 -->
<svg xmlns="http://www.w3.org/2000/svg" xml:space="preserve" width="296.333mm" height="296.333mm" version="1.1" style="shape-rendering:geometricPrecision; text-rendering:geometricPrecision; image-rendering:optimizeQuality; fill-rule:evenodd; clip-rule:evenodd"
viewBox="0 0 29633 29633"
 xmlns:xlink="http://www.w3.org/1999/xlink">
 <defs>
  <style type="text/css">
   <![CDATA[
    .fil0 {fill:#FEFEFE}
   ]]>
  </style>
 </defs>
 <g id="Слой_x0020_1">
  <metadata id="CorelCorpID_0Corel-Layer"/>
  <g id="_715064003456">
   <g>
    <path class="fil0" d="M23026 7562l0 -3054 -18709 0 0 17945 2672 0 0 2673 18328 0 0 -17564 -2291 0zm-17946 14127l0 -16418 17182 0 0 2291 -15273 0 0 14127 -1909 0zm19473 2673l-16800 0 0 -1909 0 -14127 15273 0 1527 0 0 16036z"/>
    <path class="fil0" d="M19393 13104c-150,-149 -391,-149 -540,0l-2700 2700 -2700 -2700c-149,-149 -390,-149 -540,0 -149,150 -149,391 0,540l2700 2700 -2700 2700c-149,149 -149,390 0,540 75,74 173,112 270,112 98,0 196,-38 270,-112l2700 -2700 2700 2700c74,74 172,112 270,112 98,0 195,-38 270,-112 149,-150 149,-391 0,-540l-2700 -2700 2700 -2700c149,-149 149,-391 0,-540z"/>
   </g>
   <g>
   </g>
   <g>
   </g>
   <g>
   </g>
   <g>
   </g>
   <g>
   </g>
   <g>
   </g>
   <g>
   </g>
   <g>
   </g>
   <g>
   </g>
   <g>
   </g>
   <g>
   </g>
   <g>
   </g>
   <g>
   </g>
   <g>
   </g>
   <g>
   </g>
  </g>
 </g>
</svg>
