<?xml version="1.0" encoding="utf-8"?>
<!-- Generator: Adobe Illustrator 19.1.0, SVG Export Plug-In . SVG Version: 6.00 Build 0)  -->
<svg version="1.1" id="Layer_1" xmlns="http://www.w3.org/2000/svg" xmlns:xlink="http://www.w3.org/1999/xlink" x="0px" y="0px"
	 viewBox="0 0 146.1 31.5" style="enable-background:new 0 0 146.1 31.5;" xml:space="preserve">
<style type="text/css">
	.st0{fill:#63A603;}
	.st1{fill:#FFFFFF;}
	.st2{fill:#CCCCCC;}
	.st3{fill-rule:evenodd;clip-rule:evenodd;fill:#63A603;}
	.st4{fill-rule:evenodd;clip-rule:evenodd;fill:#FFFFFF;}
</style>
<g>
	<g>
		<path class="st0" d="M13.6,21.3H0v-21h13.5v3.1H3.8v5.7h7.8v3H3.8v5.9h9.9V21.3z"/>
		<path class="st0" d="M31.3,21.3h-4l-1.7-5h-8.1l-1.6,5h-3.2l7-21h4.7L31.3,21.3z M24.6,13.3l-3.1-9.4l-3.1,9.4H24.6z"/>
		<path class="st0" d="M29.5,16.3l3.7-0.8c0.4,2.1,2.1,3.1,5.1,3.1c1.3,0,2.4-0.3,3.1-0.8c0.7-0.5,1.1-1.2,1.1-2
			c0-0.6-0.2-1.1-0.5-1.6c-0.3-0.5-1-0.9-2.1-1.1l-4-1c-1.4-0.4-2.4-0.8-3-1.2c-0.7-0.5-1.2-1.1-1.6-1.9c-0.4-0.8-0.6-1.7-0.6-2.7
			c0-1.9,0.7-3.4,2.1-4.5C34.1,0.6,35.9,0,38.1,0c1.8,0,3.4,0.4,4.8,1.2c1.4,0.8,2.3,1.9,2.7,3.4L42,5.4C41.5,3.8,40.2,3,38.2,3
			c-1.2,0-2.1,0.2-2.7,0.7c-0.6,0.5-0.9,1.1-0.9,1.9c0,1.2,1,2,2.9,2.5L41,9.1c2.2,0.5,3.6,1.3,4.4,2.4c0.7,1.1,1.1,2.2,1.1,3.5
			c0,2.1-0.8,3.7-2.3,4.9c-1.6,1.2-3.6,1.8-6,1.8c-2.1,0-3.9-0.4-5.5-1.3C31.1,19.5,30,18.1,29.5,16.3z"/>
		<path class="st0" d="M55.6,21.3h-4v-8.9L44.4,0.3H49L54,9l4.8-8.7h3.6l-6.8,12.1V21.3z"/>
		<path class="st1" d="M87.4,0.3l-5.6,21h-4L73.6,5.9l-3.8,15.4h-3.9l-5.7-21h4l4.1,15.3L72,0.3h3.8L80,15.6l4-15.3H87.4z"/>
		<path class="st1" d="M127.8,21.3h-4l-3.3-8.6h-5.3v8.6h-3.8v-21h9.1c2.5,0,4.4,0.6,5.6,1.7c1.2,1.1,1.8,2.6,1.8,4.4
			c0,2.7-1.3,4.6-3.8,5.6L127.8,21.3z M115.2,9.7h4.7c1.4,0,2.4-0.3,3-0.9c0.7-0.6,1-1.4,1-2.4c0-0.9-0.3-1.7-1-2.2
			c-0.7-0.6-1.6-0.9-2.8-0.9h-5V9.7z"/>
		<path class="st1" d="M146.1,21.3h-4.2l-4.4-10.7l-4.1,5.4v5.3h-3.8v-21h3.8v11c0.5-0.7,0.8-1.3,1-1.6l7-9.5h3.8l-5,6.9L146.1,21.3
			z"/>
	</g>
	<g>
		<g>
			<path class="st2" d="M109.2,18.7C109.2,18.7,109.2,18.7,109.2,18.7c-0.2,0-0.3,0-0.6,0c-0.7,0-1.8,0-2.7,0.1c0,0,0,0-0.1,0.1
				c0.9,0,2.1-0.1,2.8-0.1c0.2,0,0.3,0,0.4,0C109.1,18.7,109.1,18.7,109.2,18.7L109.2,18.7L109.2,18.7
				C109.2,18.7,109.2,18.8,109.2,18.7C109.2,18.8,109.3,18.7,109.2,18.7C109.3,18.7,109.2,18.7,109.2,18.7z"/>
			<path class="st2" d="M109.5,18.1C109.5,18.1,109.5,18.1,109.5,18.1c-0.1,0-0.3,0-0.4,0c-0.6,0-1.8,0.1-2.4,0.1
				c-0.1,0-0.1,0-0.2,0c0.2-0.1,0.8-0.2,1.2-0.2c0.2,0,0.4-0.1,0.6-0.1c0.1,0,0.1,0,0.2,0c0,0,0,0,0.1,0l0,0c0,0,0,0,0,0
				c0,0,0,0,0,0l-0.1,0c-0.1,0-0.1,0-0.2,0c-0.1,0-0.1,0-0.1,0h0c0,0,0,0,0,0c0,0-0.1,0-0.1,0c0,0,0,0,0,0l0.1,0c0,0,0,0,0.1,0
				c-0.3,0.1-0.7,0.1-1.1,0.2c-0.2,0-0.4,0.1-0.6,0.1c-0.1,0-0.1,0-0.2,0c0,0,0,0-0.1,0l0,0c0,0,0,0,0,0c0,0,0,0,0,0l0,0l0.1,0
				c0.1,0,0.2,0,0.3,0c0.6,0,1.8-0.1,2.4-0.1c0.1,0,0.2,0,0.2,0c0,0-0.1,0-0.1,0c-0.6,0.1-1.7,0.2-2.8,0.3c-0.1,0-0.2,0-0.2,0
				c0,0,0,0.1-0.1,0.1c0.4,0,0.8-0.1,1.2-0.1c0.6-0.1,1.1-0.1,1.5-0.1c0.2,0,0.4,0,0.5-0.1C109.4,18.2,109.4,18.2,109.5,18.1
				L109.5,18.1L109.5,18.1C109.5,18.2,109.5,18.2,109.5,18.1L109.5,18.1z"/>
			<polygon class="st2" points="108.2,17.6 108.2,17.6 108.2,17.6 			"/>
			<path class="st2" d="M91.3,19.9c-0.8,0-1.6,0-2.2,0c-0.8,0-1.5,0-2,0c-0.2,0-0.4,0-0.5,0c-0.1,0-0.1,0-0.1,0c0,0,0,0,0.1,0
				c0.2,0,0.8-0.1,1.5-0.1c0.8,0,1.8,0,3,0c0,0-0.1,0-0.1-0.1c-0.7,0-1.4,0-1.9,0c-0.8,0-1.5,0-1.9,0.1c-0.2,0-0.4,0-0.5,0
				c-0.1,0-0.1,0-0.1,0l0,0c0,0,0,0,0,0c0,0,0,0,0,0c0,0,0.1,0,0.1,0c0.2,0,0.5,0.1,0.9,0.1c0.4,0,1,0,1.7,0
				C89.7,20,90.5,20,91.3,19.9C91.3,19.9,91.3,19.9,91.3,19.9z"/>
			<path class="st2" d="M90.7,19.3c-0.5,0-1,0-1.5,0c-0.8,0-1.4,0-1.8,0c-0.2,0-0.4,0-0.5,0c0,0-0.1,0-0.1,0c0,0,0,0,0,0
				c0.3-0.1,1.5-0.2,2.6-0.3c0.3,0,0.5-0.1,0.8-0.1c0,0,0,0-0.1-0.1c-0.4,0-0.9,0.1-1.4,0.1c-0.6,0.1-1.1,0.1-1.5,0.2
				c-0.2,0-0.4,0-0.5,0.1c-0.1,0-0.1,0-0.1,0l0,0l0,0c0,0,0,0,0,0c0,0,0,0,0,0c0.1,0,0.1,0.1,0.3,0.1c0.4,0.1,1.2,0.1,2.3,0.1
				C89.7,19.4,90.2,19.4,90.7,19.3C90.7,19.4,90.7,19.4,90.7,19.3z"/>
			<path class="st2" d="M110,19.3c-0.1,0-0.1-0.1-0.3-0.1c-0.4-0.1-1.3-0.1-2.6-0.1c-0.5,0-0.9,0-1.5,0c0,0,0,0-0.1,0.1
				c0.6,0,1.1,0,1.5,0c0.9,0,1.6,0,2.1,0c0.2,0,0.4,0,0.6,0.1c0.1,0,0.1,0,0.1,0L110,19.3c-0.1,0-0.1,0.1-0.2,0.1
				c-0.2,0-0.8,0.1-1.5,0.1c-0.8,0-1.9,0.1-3.1,0.1c0,0-0.1,0-0.1,0.1c0.8,0,1.5,0,2.1,0c0.8,0,1.5,0,2-0.1c0.2,0,0.4,0,0.5-0.1
				c0.1,0,0.1,0,0.2,0L110,19.3C110,19.3,110,19.3,110,19.3C110,19.3,110,19.3,110,19.3z"/>
			<path class="st2" d="M109.7,19.8c0,0-0.1,0-0.1,0c-0.2,0-0.5-0.1-0.9-0.1c-0.4,0-1,0-1.7,0c-0.6,0-1.3,0-2.1,0c0,0-0.1,0-0.1,0.1
				c0.8,0,1.5,0,2.2,0c0.8,0,1.5,0,2,0c0.2,0,0.4,0,0.5,0C109.6,19.9,109.6,19.9,109.7,19.8L109.7,19.8c-0.1,0-0.1,0.1-0.2,0.1
				c-0.2,0-0.8,0.1-1.7,0.1c-0.9,0-2.1,0-3.5,0c0,0-0.1,0-0.1,0.1c0.9,0,1.8,0,2.5,0c0.9,0,1.6,0,2.1-0.1c0.3,0,0.4,0,0.6-0.1
				c0.1,0,0.1,0,0.2,0L109.7,19.8C109.7,19.9,109.8,19.9,109.7,19.8C109.8,19.9,109.7,19.8,109.7,19.8z"/>
			<path class="st2" d="M92.6,20.8c-2.1,0-4,0.1-5.4,0.1c-0.7,0-1.3,0-1.7,0c-0.2,0-0.4,0-0.5,0c0,0-0.1,0-0.1,0c0,0,0,0,0.1,0
				c0.2,0,0.8-0.1,1.6-0.1c1.3,0,3.3,0,5.6,0c0,0-0.1,0-0.1-0.1c-1.7,0-3.2,0-4.4,0c-0.9,0-1.6,0-2,0.1c-0.2,0-0.4,0-0.6,0
				c-0.1,0-0.1,0-0.2,0l-0.1,0c0,0,0,0,0,0c0,0,0,0,0,0c0,0,0.1,0,0.1,0c0.1,0,0.4,0,0.8,0.1c0.4,0,0.9,0,1.5,0c1.4,0,3.3,0,5.5-0.1
				C92.7,20.8,92.6,20.8,92.6,20.8z"/>
			<path class="st2" d="M85.7,18.1c0,0,0.1,0,0.1,0c0,0,0.1,0,0.2,0c0.4,0,1.1-0.1,1.4-0.1c0,0,0.1,0,0.1,0c0,0,0,0,0,0
				c-0.1,0.1-0.3,0.2-0.5,0.3c-0.1,0.1-0.2,0.1-0.3,0.1c0,0-0.1,0-0.1,0l0,0l0,0c0,0,0,0,0,0c0,0,0,0,0,0c0,0,0.1,0,0.1,0
				c0.1,0,0.3,0,0.6,0c0.7,0,1.8,0,2.8-0.1c0,0-0.1,0-0.1-0.1c-0.9,0-2,0.1-2.7,0.1c-0.2,0-0.4,0-0.5,0c-0.1,0-0.1,0-0.1,0
				c0,0,0,0,0,0c0.1-0.1,0.3-0.2,0.5-0.3c0.1-0.1,0.2-0.1,0.3-0.1c0,0,0.1,0,0.1,0l0,0l0,0c0,0,0,0,0,0c0,0,0,0,0,0c0,0,0,0-0.1,0
				c0,0-0.1,0-0.1,0c-0.3,0-1,0.1-1.4,0.1c0,0-0.1,0-0.1,0c0,0,0,0,0,0c0.2-0.1,0.7-0.1,1.2-0.2c0.2,0,0.4-0.1,0.6-0.1
				c0.1,0,0.1,0,0.2,0l0.1,0l0,0l0,0l0,0c0,0,0,0,0,0l0,0c0,0-0.1,0-0.2,0c-0.4,0-1.2,0-1.6,0c-0.1,0-0.1,0-0.2,0l0,0c0,0,0,0,0,0
				c0,0-0.1,0-0.1,0c0,0,0,0,0,0l0.1,0c0,0,0.1,0,0.2,0c0.4,0,1.2,0,1.6,0c0,0,0,0,0,0c-0.2,0.1-0.7,0.1-1.1,0.2
				c-0.2,0-0.4,0.1-0.6,0.1c-0.1,0-0.1,0-0.2,0L85.7,18.1L85.7,18.1L85.7,18.1L85.7,18.1C85.7,18.1,85.7,18.1,85.7,18.1z"/>
			<path class="st2" d="M111.4,21.4c0,0-0.1,0-0.1,0c-0.2,0-0.5-0.1-1-0.1c-0.5,0-1.1,0-1.9,0c-1.6,0-3.6,0-5.9,0c0,0-0.1,0-0.1,0.1
				c2.3,0,4.4-0.1,6,0c0.9,0,1.7,0,2.2,0c0.3,0,0.5,0,0.6,0C111.2,21.4,111.3,21.4,111.4,21.4L111.4,21.4c-0.1,0.1-0.1,0.1-0.2,0.1
				c-0.3,0.1-0.9,0.1-1.9,0.1c-1.8,0.1-4.5,0.1-7.6,0.1c-0.1,0-0.1,0-0.2,0.1c2.5,0,4.9,0,6.6,0c1,0,1.8,0,2.3-0.1
				c0.3,0,0.5,0,0.6-0.1c0.1,0,0.1,0,0.2,0L111.4,21.4C111.4,21.4,111.5,21.4,111.4,21.4C111.5,21.4,111.4,21.4,111.4,21.4z"/>
			<path class="st2" d="M83.9,22c0.5,0.1,1.6,0.1,3.1,0.1c2.4,0,5.7,0,9.1-0.1c-0.1,0-0.2,0-0.2-0.1C92.6,21.9,89.3,22,87,22
				c-1,0-1.9,0-2.5-0.1C84.2,21.9,84,21.9,83.9,22c-0.2-0.1-0.2-0.1-0.2-0.1l0,0c0,0,0.1,0,0.1,0c0.3,0,0.9-0.1,1.8-0.1
				c2.1,0,5.6,0,9.3,0c-0.1,0-0.2,0-0.3-0.1c-0.2,0-0.3,0-0.5,0c-2.8,0-5.4,0-7.4,0c-1,0-1.7,0-2.3,0.1c-0.3,0-0.5,0-0.6,0
				c-0.1,0-0.1,0-0.2,0l-0.1,0c0,0,0,0,0,0c0,0,0,0,0,0C83.6,21.9,83.7,21.9,83.9,22z"/>
			<path class="st2" d="M113.6,22.5c0,0-0.1,0-0.1,0c-0.2,0-0.6-0.1-1.2-0.1c-0.6,0-1.3,0-2.2,0c-6,0-18,0.2-24,0.2
				c-1.1,0-2,0-2.6,0c-0.3,0-0.6,0-0.7,0c-0.1,0-0.1,0-0.2,0l0,0c0,0,0,0,0.1,0c0.3,0,0.9-0.1,1.8-0.1c3.2-0.1,9.8-0.1,15.6-0.1
				c2.9,0,5.6,0,7.6-0.1c1,0,1.8,0,2.3-0.1c0.3,0,0.5,0,0.6,0c0.1,0,0.1,0,0.2,0l0.1,0c0,0,0,0,0,0c0,0,0,0,0,0
				c-0.1,0-0.1-0.1-0.3-0.1c-0.4-0.1-1.3-0.1-2.6-0.1c-1.7,0-4,0-6.6,0.1c-0.1,0-0.1,0.1-0.2,0.1c2.6,0,5-0.1,6.8-0.1
				c0.9,0,1.6,0,2.1,0c0.2,0,0.4,0,0.6,0c0.1,0,0.1,0,0.1,0l0,0c0,0-0.1,0-0.1,0c-0.3,0-0.9,0.1-1.8,0.1c-2.3,0.1-6.2,0.1-10.3,0.1
				c-0.5,0.1-1,0.1-1.5,0c-1.3,0-2.5,0-3.7,0c-2.9,0-5.6,0-7.6,0.1c-1,0-1.8,0-2.3,0.1c-0.3,0-0.5,0-0.6,0.1c-0.1,0-0.1,0-0.2,0
				l-0.1,0c0,0,0,0,0,0c0,0,0,0,0,0c0,0,0.1,0,0.1,0c0.2,0,0.6,0.1,1.2,0.1c0.6,0,1.4,0,2.3,0c6,0,18-0.2,24-0.2c1.1,0,2,0,2.6,0
				c0.3,0,0.5,0,0.7,0C113.4,22.5,113.5,22.5,113.6,22.5L113.6,22.5c-0.1,0.1-0.1,0.1-0.2,0.1c-0.3,0-1,0.1-2,0.1
				c-3.5,0.1-10.8,0-17.1,0c-3.2,0-6.1,0-8.3,0.1c-1.1,0-2,0.1-2.6,0.1c-0.3,0-0.5,0-0.7,0.1c-0.1,0-0.1,0-0.2,0c0,0,0,0-0.1,0
				c0,0,0,0,0,0c0,0,0,0,0,0.1c0,0,0.1,0,0.1,0.1c0.2,0.1,0.7,0.1,1.3,0.1c0.6,0,1.5,0,2.4,0c6,0,17.5-0.3,22.9-0.3
				c0.9,0,1.6,0,2.2,0c0.3,0,0.5,0,0.6,0c0.1,0,0.1,0,0.1,0l0,0c0,0-0.1,0-0.1,0c-0.3,0-1,0.1-2,0.1c-3.5,0.1-10.6,0-16.8,0
				c-3.1,0-6,0-8.1,0c-1.1,0-1.9,0-2.5,0.1c-0.3,0-0.5,0-0.7,0.1c-0.1,0-0.1,0-0.2,0c0,0,0,0-0.1,0c0,0,0,0,0,0c0,0,0,0,0,0.1
				c0,0,0.1,0,0.2,0.1c0.2,0,0.7,0.1,1.4,0.1c0.7,0,1.5,0,2.5,0c6.4,0,18.5-0.3,24.3-0.3c1,0,1.8,0,2.4,0c0.3,0,0.5,0,0.6,0
				c0.1,0,0.1,0,0.2,0l0,0c0,0-0.1,0-0.1,0c-0.3,0-0.9,0.1-1.9,0.1c-3.3,0.1-10,0.1-15.8,0.1c-2.9,0-5.7,0-7.7,0c-1,0-1.8,0-2.4,0.1
				c-0.3,0-0.5,0-0.7,0.1c-0.1,0-0.1,0-0.2,0l-0.1,0c0,0,0,0,0,0c0,0,0,0,0,0c0.1,0,0.2,0.1,0.3,0.1c0.5,0.1,1.5,0.1,2.9,0.1
				c5,0,14.8-0.3,19.4-0.2c0.8,0,1.5,0,1.9,0c0.2,0,0.4,0,0.5,0c0.1,0,0.1,0,0.1,0l0,0c0,0,0,0-0.1,0c-0.2,0-0.8,0.1-1.6,0.1
				c-2.8,0.1-8.4,0-13.4,0c-2.5,0-4.8,0-6.5,0c-0.8,0-1.5,0-2,0.1c-0.2,0-0.4,0-0.6,0.1c-0.1,0-0.1,0-0.2,0l-0.1,0c0,0,0,0,0,0
				c0,0,0,0,0,0c0,0,0.1,0,0.1,0c0.1,0,0.4,0.1,0.9,0.1c0.4,0,1,0,1.6,0c4.3,0,13.2-0.2,17.7-0.2c0.9,0,1.5,0,2,0c0.2,0,0.4,0,0.6,0
				c0.1,0,0.1,0,0.1,0c-0.1,0-0.2,0-0.4,0c-1.6,0.1-6.8,0.1-11.7,0.1c-2.4,0-4.8,0-6.5,0.1c-0.9,0-1.6,0-2.1,0.1
				c-0.2,0-0.4,0-0.6,0.1c-0.1,0-0.1,0-0.2,0l-0.1,0c0,0,0,0,0,0l0,0c0,0,0,0,0.1,0c0.1,0,0.3,0,0.6,0.1c0.3,0,0.7,0,1.2,0
				c3.5,0,10.9-0.2,14.9-0.2c0.8,0,1.4,0,1.9,0c0.2,0,0.4,0,0.5,0c0.1,0,0.1,0,0.1,0c0,0,0,0,0,0c-0.2,0-0.6,0.1-1.1,0.1
				c-1.9,0.1-5.7,0.1-9.1,0.1c-1.7,0-3.2,0-4.4,0.1c-0.6,0-1,0-1.4,0.1c-0.2,0-0.3,0-0.4,0c0,0-0.1,0-0.1,0l0,0c0,0,0,0,0,0
				c0,0,0,0,0,0c0,0,0,0,0.1,0c0.1,0,0.3,0,0.7,0c0.3,0,0.7,0,1.2,0c3.1,0,9.1-0.1,12.1-0.1c0.5,0,0.9,0,1.2,0c0.1,0,0.2,0,0.3,0
				c-0.3,0-1.1,0.1-2.2,0.1c-1.7,0.1-4.2,0.1-6.1,0.2c-1,0-1.9,0.1-2.5,0.1c-0.3,0-0.6,0-0.7,0.1c-0.1,0-0.2,0-0.2,0c0,0,0,0-0.1,0
				l0,0l0,0c0,0,0,0,0,0c0,0,0.1,0,0.1,0c0.2,0,0.5,0,0.9,0c1.7,0,5.2-0.1,6.9-0.1c0.3,0,0.6,0,0.8,0c0.1,0,0.2,0,0.2,0l0,0l0,0l0,0
				c0,0,0,0,0,0c0,0,0.1,0,0.1,0c0,0,0,0,0,0c0,0-0.1,0-0.1,0c-0.2,0-0.5,0-0.9,0c-1.7,0-5.2,0.1-6.9,0.1c-0.3,0-0.6,0-0.7,0
				c-0.1,0-0.1,0-0.2,0c0.1,0,0.4,0,0.8-0.1c1.4-0.1,4.2-0.1,6.6-0.2c1.2,0,2.3-0.1,3.2-0.1c0.4,0,0.8,0,1,0c0.1,0,0.2,0,0.3,0
				c0,0,0.1,0,0.1,0l0,0c0,0,0,0,0,0c0,0,0,0,0,0c0,0,0,0-0.1,0c-0.1,0-0.3,0-0.6,0c-0.3,0-0.6,0-1.1,0c-3,0-9,0.1-12.1,0.1
				c-0.6,0-1.1,0-1.4,0c-0.2,0-0.3,0-0.4,0c0,0,0,0,0,0c0,0,0,0,0,0c0.3-0.1,1.5-0.1,3.1-0.1c2.4,0,5.7-0.1,8.4-0.1
				c1.4,0,2.6,0,3.4-0.1c0.4,0,0.8,0,1-0.1c0.1,0,0.2,0,0.3,0c0,0,0.1,0,0.1,0l0,0l0,0c0,0,0,0,0,0c-0.1,0-0.1-0.1-0.3-0.1
				c-0.4,0-1.2-0.1-2.3-0.1c-3.9,0-11.4,0.2-14.9,0.2c-0.6,0-1.1,0-1.4,0c-0.2,0-0.3,0-0.4,0c0,0-0.1,0-0.1,0c0,0,0,0,0.1,0
				c0.2,0,0.7-0.1,1.4-0.1c2.4-0.1,7.4-0.1,11.8-0.1c2.2,0,4.2,0,5.7,0c0.7,0,1.4,0,1.8-0.1c0.2,0,0.4,0,0.5,0c0.1,0,0.1,0,0.1,0
				l0,0c0,0,0,0,0,0c0,0,0,0,0,0c0,0-0.1,0-0.1,0c-0.2,0-0.5-0.1-0.9-0.1c-0.5,0-1.1,0-1.8,0c-4.5,0-13.4,0.2-17.7,0.2
				c-0.8,0-1.4,0-1.8,0c-0.2,0-0.4,0-0.5,0c-0.1,0-0.1,0-0.1,0l0,0c0.1,0,0.2,0,0.4-0.1c1.7-0.1,7.7-0.1,13.2-0.1c2.8,0,5.4,0,7.4,0
				c1,0,1.8,0,2.3-0.1c0.3,0,0.5,0,0.7,0c0.1,0,0.1,0,0.2,0l0.1,0c0,0,0,0,0,0c0,0,0,0,0,0c0,0-0.1,0-0.1,0c-0.2,0-0.5-0.1-0.9-0.1
				c-0.4,0-1,0-1.7,0c-4.7,0-14.4,0.3-19.4,0.2c-1,0-1.8,0-2.3,0c-0.3,0-0.5,0-0.6-0.1c-0.1,0-0.1,0-0.2,0l0,0c0,0,0.1,0,0.1,0
				c0.3,0,0.9-0.1,1.9-0.1c3.3-0.1,10-0.1,15.8-0.1c2.9,0,5.7,0,7.7-0.1c1,0,1.8,0,2.4-0.1c0.3,0,0.5,0,0.7-0.1c0.1,0,0.1,0,0.2,0
				l0.1,0c0,0,0,0,0,0c0,0,0,0,0,0c0,0-0.1,0-0.1,0c-0.2,0-0.6-0.1-1.1-0.1c-0.5,0-1.2,0-2,0c-5.8,0-18,0.3-24.3,0.3
				c-1.2,0-2.2,0-2.9-0.1c-0.4,0-0.6,0-0.8-0.1c-0.1,0-0.2,0-0.2,0l0,0c0,0,0.1,0,0.1,0c0.3,0,1-0.1,2-0.1c3.5-0.1,10.6,0,16.8,0
				c3.1,0,6,0,8.1,0c1.1,0,1.9,0,2.5-0.1c0.3,0,0.5,0,0.7-0.1c0.1,0,0.1,0,0.2,0c0,0,0,0,0.1,0c0,0,0,0,0,0c0,0,0,0,0,0
				c0,0-0.1,0-0.1,0c-0.2,0-0.5-0.1-1-0.1c-0.5,0-1.1,0-1.9,0c-5.4,0-16.9,0.3-22.9,0.3c-1.2,0-2.2,0-2.8-0.1c-0.3,0-0.6,0-0.8-0.1
				c-0.1,0-0.2,0-0.2,0l0,0l0,0c0,0,0,0,0.1,0c0.3-0.1,1-0.1,2-0.1c3.5-0.1,10.7-0.1,17.1-0.1c3.2,0,6.2,0,8.3,0c1.1,0,2,0,2.6-0.1
				c0.3,0,0.5,0,0.7,0c0.1,0,0.1,0,0.2,0C113.6,22.6,113.6,22.6,113.6,22.5C113.6,22.6,113.6,22.5,113.6,22.5
				C113.6,22.5,113.6,22.5,113.6,22.5z"/>
			<path class="st2" d="M110.8,20.8c-0.1,0-0.2-0.1-0.4-0.1c-0.6-0.1-1.7-0.1-3.3-0.1c0,0,0,0,0,0c0.8,0,1.5,0,2-0.1
				c0.2,0,0.4,0,0.6-0.1c0.1,0,0.1,0,0.2,0l0.1,0c0,0,0,0,0,0c0,0,0,0,0,0c0,0-0.1,0-0.1,0c-0.1,0-0.4,0-0.7-0.1c-0.4,0-0.8,0-1.4,0
				c-1,0-2.2,0-3.6,0c0,0-0.1,0-0.1,0.1c1.5,0,2.7,0,3.7,0c0.7,0,1.2,0,1.6,0c0.2,0,0.3,0,0.4,0c0,0,0.1,0,0.1,0c0,0-0.1,0-0.1,0
				c-0.3,0-0.8,0.1-1.7,0.1c-1.1,0-2.7,0.1-4.6,0.1c-0.1,0-0.1,0.1-0.2,0.1c1.4,0,2.7,0,3.9,0c1.1,0,2,0,2.6,0.1
				c0.3,0,0.6,0,0.7,0.1c0.1,0,0.1,0,0.2,0L110.8,20.8L110.8,20.8c-0.1,0.1-0.1,0.1-0.2,0.1c-0.3,0-0.9,0.1-1.8,0.1
				c-1.5,0-3.6,0.1-6.1,0.1c0,0-0.1,0-0.1,0.1c1.9,0,3.7,0,5.1,0c0.9,0,1.7,0,2.2-0.1c0.3,0,0.5,0,0.6-0.1c0.1,0,0.1,0,0.2,0
				L110.8,20.8C110.8,20.9,110.8,20.9,110.8,20.8C110.8,20.8,110.8,20.8,110.8,20.8z"/>
			<path class="st2" d="M93.8,21.4c-2.6,0-5,0.1-6.8,0.1c-1,0-1.9,0-2.4,0c-0.3,0-0.5,0-0.7-0.1c-0.1,0-0.1,0-0.2,0l0,0
				c0,0,0,0,0.1,0c0.3,0,0.9-0.1,1.8-0.1c1.8,0,4.5,0,7.6,0c0,0-0.1,0-0.1-0.1c-2.4,0-4.7,0-6.4,0c-0.9,0-1.7,0-2.2,0.1
				c-0.3,0-0.5,0-0.6,0c-0.1,0-0.1,0-0.2,0l-0.1,0c0,0,0,0,0,0c0,0,0,0,0,0c0,0,0.1,0,0.1,0c0.2,0,0.6,0.1,1.1,0.1
				c0.6,0,1.3,0,2.1,0c1.9,0,4.3,0,7-0.1C94,21.4,93.9,21.4,93.8,21.4z"/>
			<path class="st2" d="M92,20.4c-1.5,0-3,0-4.2,0c-1.1,0-2,0-2.7-0.1c-0.3,0-0.6,0-0.7-0.1c-0.1,0-0.1,0-0.2,0l0,0c0,0,0,0,0.1,0
				c0.2,0,0.8-0.1,1.7-0.1c1.3,0,3.3-0.1,5.6-0.1c0,0-0.1,0-0.1-0.1c-1.7,0-3.2,0-4.4,0c-0.9,0-1.6,0-2.1,0.1c-0.3,0-0.4,0-0.6,0.1
				c-0.1,0-0.1,0-0.2,0l-0.1,0c0,0,0,0,0,0c0,0,0,0,0,0.1c0,0,0.1,0,0.1,0.1c0.2,0.1,0.7,0.1,1.3,0.1c0.6,0,1.4,0,2.3,0
				c1.2,0,2.7,0,4.3,0C92.1,20.5,92,20.5,92,20.4z"/>
		</g>
		<g>
			<g>
				<path class="st3" d="M88.3,11.1c0.2-2.5,1.3-4.5,2.7-6c1.4-1.5,3.5-2.8,6.3-3V0.3c-4.7,0.5-8,2.9-9.7,6.6
					c-0.6,1.2-1,2.7-1.1,4.2H88.3z"/>
				<path class="st4" d="M88.3,12.6h-1.9c0.3,3.3,1.6,5.7,3.4,7.5c1.8,1.8,4.2,3.1,7.5,3.4v-1.8c-2.5-0.2-4.7-1.3-6.1-2.8
					C89.7,17.3,88.5,15.4,88.3,12.6z"/>
				<path class="st3" d="M107.7,12.6c-0.2,2.6-1.3,4.6-2.8,6.1c-1.5,1.5-3.5,2.7-6.2,2.9v1.8c3.2-0.3,5.6-1.6,7.4-3.4
					c1.8-1.8,3.1-4.2,3.4-7.5H107.7z"/>
				<path class="st4" d="M107.7,11.1h1.9c-0.3-3.2-1.6-5.6-3.4-7.4c-1.8-1.8-4.2-3.2-7.4-3.4v1.9c2.6,0.2,4.7,1.4,6,2.8
					C106.3,6.4,107.5,8.4,107.7,11.1z"/>
				<path class="st3" d="M97.6,3.6c0.3,0,0.6,0,0.9,0c0,0.3,0,0.6,0,0.9c-0.3,0-0.6,0-0.9,0C97.6,4.3,97.6,3.9,97.6,3.6z"/>
				<path class="st3" d="M101.8,4.5c0.3,0.1,0.5,0.3,0.8,0.4c-0.1,0.3-0.3,0.5-0.4,0.8c-0.3-0.1-0.5-0.3-0.8-0.5
					C101.4,5,101.6,4.8,101.8,4.5z"/>
				<path class="st3" d="M94.7,5.3c-0.2,0.2-0.5,0.3-0.8,0.5c-0.1-0.3-0.3-0.5-0.4-0.7c0.3-0.2,0.5-0.3,0.8-0.4
					C94.4,4.8,94.6,5,94.7,5.3z"/>
				<path class="st3" d="M98.2,5.1c0,0-0.5,4.4-0.9,6.7c0.1,0.2,0.3,0.2,0.4,0.3c-0.1,0.1,0,0.4,0,0.6l3.8,1.8l-2.7-2.8
					C98.5,9.4,98.2,5.1,98.2,5.1z"/>
				<path class="st3" d="M91.1,7.4c0.3,0.1,0.5,0.3,0.8,0.4c-0.1,0.3-0.3,0.5-0.4,0.8c-0.3-0.1-0.5-0.3-0.8-0.4
					C90.8,7.9,91,7.7,91.1,7.4z"/>
				<path class="st3" d="M105.4,8.2c-0.3,0.1-0.5,0.2-0.7,0.4c-0.2-0.2-0.3-0.5-0.5-0.8c0.3-0.1,0.5-0.3,0.8-0.4
					C105.1,7.7,105.3,7.8,105.4,8.2z"/>
				<path class="st3" d="M89.8,11.4c0.3,0,0.6,0,0.9,0c0,0.3,0,0.6,0,0.9c-0.3,0-0.6,0-0.9,0C89.8,12,89.8,11.7,89.8,11.4z"/>
				<path class="st3" d="M105.4,11.4c0.3,0,0.6,0,0.9,0c0,0.3,0,0.6,0,0.9c-0.3,0-0.6,0-0.9,0C105.4,12,105.4,11.7,105.4,11.4z"/>
				<path class="st3" d="M91.9,15.9c-0.2,0.2-0.5,0.4-0.8,0.5c-0.1-0.3-0.3-0.5-0.4-0.8c0.2-0.1,0.5-0.2,0.7-0.4
					C91.7,15.3,91.7,15.6,91.9,15.9z"/>
				<path class="st3" d="M104.6,15.2c0.3,0.1,0.5,0.3,0.8,0.4c-0.1,0.3-0.3,0.5-0.5,0.8c-0.3-0.1-0.5-0.3-0.8-0.4
					C104.3,15.7,104.4,15.5,104.6,15.2z"/>
				<path class="st3" d="M94,18c0.3,0.1,0.5,0.3,0.8,0.4c-0.1,0.3-0.3,0.5-0.4,0.7c-0.3-0.1-0.5-0.3-0.8-0.4
					C93.7,18.5,93.8,18.3,94,18z"/>
				<path class="st3" d="M102.5,18.7c-0.2,0.2-0.5,0.3-0.7,0.5c-0.2-0.2-0.3-0.5-0.5-0.8c0.2-0.2,0.5-0.3,0.7-0.5
					C102.3,18.2,102.3,18.6,102.5,18.7z"/>
				<path class="st3" d="M98.4,19.2c0.1,0.2,0,0.6,0,0.9c-0.3,0-0.6,0-0.9,0c0-0.3,0-0.6,0-0.9C97.8,19.2,98.2,19.2,98.4,19.2z"/>
			</g>
		</g>
	</g>
</g>
</svg>
