<?xml version="1.0" encoding="UTF-8"?>
<!DOCTYPE svg PUBLIC "-//W3C//DTD SVG 1.1//EN" "http://www.w3.org/Graphics/SVG/1.1/DTD/svg11.dtd">
<!-- Creator: CorelDRAW X7 -->
<svg xmlns="http://www.w3.org/2000/svg" xml:space="preserve" width="296.333mm" height="296.333mm" version="1.1" style="shape-rendering:geometricPrecision; text-rendering:geometricPrecision; image-rendering:optimizeQuality; fill-rule:evenodd; clip-rule:evenodd"
viewBox="0 0 29633 29633"
 xmlns:xlink="http://www.w3.org/1999/xlink">
 <defs>
  <style type="text/css">
   <![CDATA[
    .fil0 {fill:#FEFEFE}
   ]]>
  </style>
 </defs>
 <g id="Слой_x0020_1">
  <metadata id="CorelCorpID_0Corel-Layer"/>
  <g id="_715064014912">
   <g>
    <path class="fil0" d="M27339 4794l-23517 0c-511,0 -926,415 -926,926 0,512 415,926 926,926l22591 0 0 16341 -19721 0c-1914,0 -3472,-1557 -3472,-3472 0,-1523 986,-2818 2353,-3285l-665 949c-293,419 -191,996 227,1290 162,113 347,167 531,167 292,0 579,-138 759,-395l1945 -2777c141,-201 196,-450 153,-692 -42,-242 -179,-457 -381,-598l-2777 -1945c-419,-293 -996,-191 -1289,228 -294,419 -192,996 227,1289l929 651c-2227,636 -3863,2689 -3863,5118 0,2936 2388,5324 5323,5324l20647 0c511,0 926,-415 926,-926l0 -18193c0,-511 -415,-926 -926,-926z"/>
    <path class="fil0" d="M13926 17104c0,-512 -415,-926 -926,-926 -511,0 -926,414 -926,926 0,1513 1303,2785 3050,3123l0 896c0,511 414,926 925,926 512,0 926,-415 926,-926l0 -896c1747,-338 3049,-1610 3049,-3123 0,-1514 -1302,-2786 -3049,-3124l0 -2665c696,229 1198,699 1198,1215 0,511 414,926 926,926 511,0 926,-415 926,-926 0,-1514 -1303,-2786 -3050,-3124l0 -896c0,-511 -414,-926 -926,-926 -511,0 -925,415 -925,926l0 896c-1747,338 -3050,1610 -3050,3124 0,1514 1303,2786 3050,3124l0 2664c-697,-229 -1198,-699 -1198,-1214zm4247 0c0,515 -502,985 -1198,1214l0 -2429c696,229 1198,699 1198,1215zm-4247 -4574c0,-516 501,-986 1198,-1215l0 2429c-697,-229 -1198,-699 -1198,-1214z"/>
   </g>
   <g>
   </g>
   <g>
   </g>
   <g>
   </g>
   <g>
   </g>
   <g>
   </g>
   <g>
   </g>
   <g>
   </g>
   <g>
   </g>
   <g>
   </g>
   <g>
   </g>
   <g>
   </g>
   <g>
   </g>
   <g>
   </g>
   <g>
   </g>
   <g>
   </g>
  </g>
 </g>
</svg>
